HIERARCHY
ROOT Hips
{
	OFFSET -0.001795 -0.223333 0.028219
	CHANNELS 6 Xposition Yposition Zposition Zrotation Yrotation Xrotation
	JOINT LeftUpLeg
	{
		OFFSET 0.069520 -0.091406 -0.006815
		CHANNELS 3 Zrotation Yrotation Xrotation
		JOINT LeftLeg
		{
			OFFSET 0.034277 -0.375199 -0.004496
			CHANNELS 3 Zrotation Yrotation Xrotation
			JOINT LeftFoot
			{
				OFFSET -0.013596 -0.397961 -0.043693
				CHANNELS 3 Zrotation Yrotation Xrotation
				JOINT LeftToe
				{
					OFFSET 0.026358 -0.055791 0.119288
					CHANNELS 3 Zrotation Yrotation Xrotation
					End Site
					{
						OFFSET 0.000000 0.000000 0.000000
					}
				}
			}
		}
	}
	JOINT RightUpLeg
	{
		OFFSET -0.067670 -0.090522 -0.004320
		CHANNELS 3 Zrotation Yrotation Xrotation
		JOINT RightLeg
		{
			OFFSET -0.038290 -0.382569 -0.008850
			CHANNELS 3 Zrotation Yrotation Xrotation
			JOINT RightFoot
			{
				OFFSET 0.015774 -0.398415 -0.042312
				CHANNELS 3 Zrotation Yrotation Xrotation
				JOINT RightToe
				{
					OFFSET -0.025372 -0.048144 0.123348
					CHANNELS 3 Zrotation Yrotation Xrotation
					End Site
					{
						OFFSET 0.000000 0.000000 0.000000
					}
				}
			}
		}
	}
	JOINT Spine
	{
		OFFSET -0.002533 0.108963 -0.026696
		CHANNELS 3 Zrotation Yrotation Xrotation
		JOINT Spine1
		{
			OFFSET 0.005487 0.135180 0.001092
			CHANNELS 3 Zrotation Yrotation Xrotation
			JOINT Spine2
			{
				OFFSET 0.001457 0.052922 0.025425
				CHANNELS 3 Zrotation Yrotation Xrotation
				JOINT Neck
				{
					OFFSET -0.002778 0.213870 -0.042857
					CHANNELS 3 Zrotation Yrotation Xrotation
					JOINT Head
					{
						OFFSET 0.005152 0.064970 0.051349
						CHANNELS 3 Zrotation Yrotation Xrotation
						End Site
						{
							OFFSET 0.000000 0.000000 0.000000
						}
					}
				}
				JOINT LeftShoulder
				{
					OFFSET 0.078845 0.121749 -0.034090
					CHANNELS 3 Zrotation Yrotation Xrotation
					JOINT LeftArm
					{
						OFFSET 0.090977 0.030469 -0.008868
						CHANNELS 3 Zrotation Yrotation Xrotation
						JOINT LeftForeArm
						{
							OFFSET 0.259612 -0.012772 -0.027456
							CHANNELS 3 Zrotation Yrotation Xrotation
							JOINT LeftHand
							{
								OFFSET 0.249234 0.008986 -0.001171
								CHANNELS 3 Zrotation Yrotation Xrotation
								End Site
								{
									OFFSET 0.000000 0.000000 0.000000
								}
							}
						}
					}
				}
				JOINT RightShoulder
				{
					OFFSET -0.081759 0.118833 -0.038615
					CHANNELS 3 Zrotation Yrotation Xrotation
					JOINT RightArm
					{
						OFFSET -0.096012 0.032551 -0.009143
						CHANNELS 3 Zrotation Yrotation Xrotation
						JOINT RightForeArm
						{
							OFFSET -0.253742 -0.013329 -0.021401
							CHANNELS 3 Zrotation Yrotation Xrotation
							JOINT RightHand
							{
								OFFSET -0.255298 0.007772 -0.005559
								CHANNELS 3 Zrotation Yrotation Xrotation
								End Site
								{
									OFFSET 0.000000 0.000000 0.000000
								}
							}
						}
					}
				}
			}
		}
	}
}
MOTION
Frames: 11
Frame Time: 0.050000
0.000000 0.071111 0.000000 -10.419435 4.419113 79.305341 95.955225 18.240346 -11.731917 -51.365978 52.490898 65.006402 4.875490 0.109966 -20.157903 0.000000 0.000000 0.000000 -13.299680 8.345935 -43.713742 30.604627 -22.933458 82.287217 -4.344833 -2.873991 -50.712630 0.000000 0.000000 0.000000 -58.033728 40.683981 36.415249 20.764918 39.940893 -171.445264 -56.050740 7.645322 50.958619 -11.464612 15.731894 11.827019 0.000000 0.000000 0.000000 -24.685245 -18.490083 14.645475 8.404689 -28.793248 -3.794442 72.587024 -28.569015 -25.917184 0.000000 0.000000 0.000000 16.254372 -14.172321 -2.282790 38.139189 -15.070186 -15.246180 132.665546 46.294583 98.115728 0.000000 0.000000 0.000000
0.000089 0.065753 -0.001308 -10.846474 6.812020 84.764998 99.932489 18.451782 -7.138031 -67.080689 53.591913 47.407535 9.201826 10.849847 -29.715696 0.000000 0.000000 0.000000 -11.215322 11.185214 -43.310527 39.402712 -19.659295 68.903476 -0.196785 -8.468579 -50.827075 0.000000 0.000000 0.000000 -60.767301 36.967736 20.377008 1.446966 7.609056 -176.456516 -76.973600 3.953956 82.203862 -8.832034 13.858083 18.520680 0.000000 0.000000 0.000000 -24.645565 -13.178152 20.700968 20.145880 -35.172026 -6.093801 78.122681 -22.222503 -20.706724 0.000000 0.000000 0.000000 19.090410 -11.152115 -14.462031 32.643018 -27.248467 -12.575130 126.527398 39.979649 54.562267 0.000000 0.000000 0.000000
0.002097 0.066815 -0.002098 -10.020591 8.152874 79.894868 106.738908 -2.878700 0.573220 -96.300902 47.362006 13.496407 8.710903 3.350354 -38.026558 0.000000 0.000000 0.000000 -8.078112 2.994584 -34.177175 22.744418 -19.720724 77.867683 -15.177567 9.020289 -64.695449 0.000000 0.000000 0.000000 -53.375010 40.798096 46.160416 69.915618 61.544614 -128.287916 -45.682032 21.833333 21.704368 -9.844393 12.523224 10.906883 0.000000 0.000000 0.000000 -11.018975 -18.168364 2.717480 4.019313 -38.122093 -7.241629 76.007329 -32.198783 -34.107374 0.000000 0.000000 0.000000 16.199732 -12.487219 -3.466037 33.288388 -17.766585 -12.514896 137.599575 45.970001 122.239427 0.000000 0.000000 0.000000
0.004379 0.061968 -0.003328 -15.142668 7.936817 80.661346 105.358507 -19.584858 9.474874 -112.001292 32.602578 -8.957979 9.240093 11.225239 -36.393544 0.000000 0.000000 0.000000 5.725023 -2.051809 -29.290699 -3.763144 -0.638010 80.631209 -20.833083 3.312935 -84.550131 0.000000 0.000000 0.000000 -49.543369 42.968375 40.291901 51.530359 56.186839 -147.781262 -48.543664 24.862589 26.919104 -8.695485 9.160110 18.511055 0.000000 0.000000 0.000000 -17.582324 -20.591666 3.532943 12.243439 -40.002201 -13.904539 78.273889 -37.540073 -36.798575 0.000000 0.000000 0.000000 13.362021 -12.885228 -7.795265 32.329014 -20.586982 -11.593852 140.072445 42.070289 125.331044 0.000000 0.000000 0.000000
0.007593 0.060199 -0.004448 -22.220223 9.831388 79.021338 100.922689 -43.049268 25.951240 -127.091308 26.410753 -29.421526 11.337096 4.402457 -39.621768 0.000000 0.000000 0.000000 16.982889 -9.016397 -31.063950 -45.148320 12.850851 73.785342 -26.209939 8.922852 -93.145491 0.000000 0.000000 0.000000 -31.236295 55.814140 61.122752 52.851684 58.805057 -154.051381 -38.838187 30.834541 18.859319 -8.933352 8.498943 12.237540 0.000000 0.000000 0.000000 -15.368311 -16.279522 17.799154 23.437967 -41.890139 -15.843211 92.892799 -10.734578 -45.746137 0.000000 0.000000 0.000000 9.401157 -15.299454 4.650683 37.127312 -7.746770 -16.833649 146.817100 46.601211 153.303294 0.000000 0.000000 0.000000
0.010280 0.057798 -0.005541 -79.744868 -31.247603 39.438800 141.999599 -34.419120 47.756185 -31.038524 14.643050 80.552192 10.808598 -11.546627 -57.559505 0.000000 0.000000 0.000000 3.605742 -2.041713 17.888526 -71.983715 39.696037 33.894751 -29.110208 6.188610 -100.303278 0.000000 0.000000 0.000000 -26.265449 44.326952 82.368373 55.260144 54.705476 -130.098019 41.953571 38.454048 86.129585 -9.038013 -5.614002 28.391463 0.000000 0.000000 0.000000 -1.841353 -19.618140 -0.071640 4.306615 -36.261942 -1.259971 95.536616 -23.335351 -45.217853 0.000000 0.000000 0.000000 36.440396 -9.182724 11.573665 25.681125 -8.197945 -10.428677 164.241403 49.528655 171.850955 0.000000 0.000000 0.000000
0.012091 0.056173 -0.006689 -71.222358 -49.859351 13.738269 172.160283 6.414263 17.308059 38.330163 -50.419324 57.366378 32.084873 -52.804975 -86.236191 0.000000 0.000000 0.000000 -20.177893 19.545116 37.632045 -65.135829 31.141696 34.890843 -22.872557 4.047528 -101.261667 0.000000 0.000000 0.000000 -33.199562 52.326606 87.833342 48.439621 30.251226 -105.868675 49.668898 37.397428 70.009447 -20.008333 -1.816368 41.522890 0.000000 0.000000 0.000000 -19.960328 -24.681516 -4.412380 15.473159 -28.966803 -7.776951 106.865462 -42.458774 -51.255287 0.000000 0.000000 0.000000 44.667354 -5.623850 15.706650 16.036530 -5.523901 -3.900483 -173.124398 46.061613 -157.371204 0.000000 0.000000 0.000000
0.013323 0.052212 -0.009093 -25.408412 -47.952929 -45.181642 146.980100 32.770203 -2.682151 96.991213 -37.033008 -8.382891 56.435970 -48.083674 -126.199189 0.000000 0.000000 0.000000 -50.311751 50.212917 60.462602 -41.152012 18.173107 30.388143 -18.791688 1.109455 -100.545800 0.000000 0.000000 0.000000 -37.019421 62.419510 103.538490 20.205125 -0.030030 -58.041431 33.223014 49.824172 11.273861 -13.550644 -6.146159 36.116024 0.000000 0.000000 0.000000 -12.651659 -19.029679 -2.099100 7.720400 -24.111091 -3.761186 118.295863 -39.033992 -59.481502 0.000000 0.000000 0.000000 38.750290 -4.129979 12.813504 20.593812 -6.652053 -4.301278 -175.911167 37.521781 -142.411916 0.000000 0.000000 0.000000
0.014304 0.045716 -0.013848 -6.514840 -28.647508 -66.307179 115.193391 30.628730 -14.758251 108.638953 -37.083139 -11.407779 57.766415 -49.346341 -131.276814 0.000000 0.000000 0.000000 -94.222646 62.901532 43.916938 -15.417986 13.263385 35.812811 -19.211072 3.061343 -99.668781 0.000000 0.000000 0.000000 -19.063669 58.834380 135.071495 9.009130 -0.601745 -48.130116 19.122649 36.469721 5.465887 0.882952 -5.786613 16.139597 0.000000 0.000000 0.000000 -8.685237 -11.544694 0.657639 1.863873 -21.370759 -1.367495 126.383739 -35.681063 -68.752650 0.000000 0.000000 0.000000 31.933530 -1.650498 4.886166 25.344232 -4.856078 -5.125957 -178.707870 31.633811 -146.438329 0.000000 0.000000 0.000000
0.015405 0.040047 -0.020728 0.146401 -15.553739 -70.594516 91.767773 28.694658 -23.702998 117.035620 -47.843511 -7.352919 52.251193 -51.892385 -127.467537 0.000000 0.000000 0.000000 -137.592164 58.189226 12.937033 2.891604 6.677578 50.685048 -19.768260 4.015816 -101.072266 0.000000 0.000000 0.000000 -5.321433 37.503649 156.079119 0.633115 0.145340 -47.178870 5.508078 12.516333 -0.700683 5.170828 -7.195498 17.678057 0.000000 0.000000 0.000000 -10.629983 -9.182213 2.651892 -7.652622 -9.076671 -0.435350 139.674272 -35.179876 -75.937857 0.000000 0.000000 0.000000 30.133626 2.128249 -1.905562 24.568679 -8.430185 -3.707412 -177.102493 26.205588 -148.988612 0.000000 0.000000 0.000000
0.016709 0.032079 -0.028370 6.679686 -1.752566 -68.028872 62.456123 22.936856 -35.910087 115.948356 -64.437556 8.574272 66.332076 -73.086436 -130.293983 0.000000 0.000000 0.000000 -159.354045 17.195534 -6.990798 -12.119620 24.933797 77.946478 -22.482307 5.110452 -109.520513 0.000000 0.000000 0.000000 -1.863860 -3.117684 162.323888 -13.796975 2.099056 -45.348499 -12.547464 -28.149354 -1.203277 12.371601 -5.180616 28.251706 0.000000 0.000000 0.000000 -21.341956 -4.441167 8.537313 -9.048286 -1.369217 -1.974285 150.799200 -35.862298 -84.705755 0.000000 0.000000 0.000000 28.855825 6.003813 -12.550832 18.914599 -11.507079 -0.823781 -173.310323 25.454012 -136.888692 0.000000 0.000000 0.000000
